<svg width="255" height="98" viewBox="0 0 255 98" fill="none" xmlns="http://www.w3.org/2000/svg">
<path d="M51.0977 45H43.166V19.1465L29.21 43.6982C28.8669 44.3239 28.3825 44.7982 27.7568 45.1211C27.1514 45.444 26.4954 45.6055 25.7891 45.6055C25.1029 45.6055 24.457 45.444 23.8516 45.1211C23.2663 44.7982 22.8021 44.3239 22.459 43.6982L8.44238 19.1465V45H0.571289V4.94824C0.571289 4.04004 0.833659 3.23275 1.3584 2.52637C1.90332 1.81999 2.6097 1.3457 3.47754 1.10352C3.90137 1.0026 4.3252 0.972331 4.74902 1.0127C5.17285 1.03288 5.5765 1.1237 5.95996 1.28516C6.36361 1.42643 6.72689 1.63835 7.0498 1.9209C7.37272 2.18327 7.64518 2.50618 7.86719 2.88965L25.7891 34.041L43.7109 2.88965C44.1751 2.12272 44.8109 1.5778 45.6182 1.25488C46.4456 0.931966 47.3034 0.88151 48.1914 1.10352C49.0391 1.3457 49.7354 1.81999 50.2803 2.52637C50.8252 3.23275 51.0977 4.04004 51.0977 4.94824V45ZM112.032 27.4414C112.032 30.0853 111.578 32.5173 110.67 34.7373C109.762 36.9574 108.5 38.8747 106.886 40.4893C105.271 42.1038 103.354 43.3652 101.134 44.2734C98.9337 45.1615 96.532 45.6055 93.9285 45.6055H83.2723C80.6687 45.6055 78.257 45.1615 76.0369 44.2734C73.8169 43.3652 71.8995 42.1038 70.285 40.4893C68.6704 38.8747 67.3989 36.9574 66.4705 34.7373C65.5623 32.5173 65.1082 30.0853 65.1082 27.4414V19.1465C65.1082 16.5228 65.5623 14.1009 66.4705 11.8809C67.3989 9.64062 68.6704 7.72331 70.285 6.12891C71.8995 4.51432 73.8169 3.25293 76.0369 2.34473C78.257 1.43652 80.6687 0.982422 83.2723 0.982422H93.9285C96.532 0.982422 98.9337 1.43652 101.134 2.34473C103.354 3.25293 105.271 4.51432 106.886 6.12891C108.5 7.72331 109.762 9.64062 110.67 11.8809C111.578 14.1009 112.032 16.5228 112.032 19.1465V27.4414ZM104.161 19.1465C104.161 17.5924 103.909 16.1898 103.404 14.9385C102.92 13.667 102.223 12.5872 101.315 11.6992C100.427 10.791 99.3475 10.0947 98.076 9.61035C96.8247 9.10579 95.4422 8.85352 93.9285 8.85352H83.2723C81.7384 8.85352 80.3357 9.10579 79.0643 9.61035C77.813 10.0947 76.7332 10.791 75.825 11.6992C74.9168 12.5872 74.2104 13.667 73.7059 14.9385C73.2215 16.1898 72.9793 17.5924 72.9793 19.1465V27.4414C72.9793 28.9954 73.2215 30.4082 73.7059 31.6797C74.2104 32.931 74.9168 34.0107 75.825 34.9189C76.7332 35.807 77.813 36.5033 79.0643 37.0078C80.3357 37.4922 81.7384 37.7344 83.2723 37.7344H93.868C95.4018 37.7344 96.7944 37.4922 98.0457 37.0078C99.3172 36.5033 100.407 35.807 101.315 34.9189C102.223 34.0107 102.92 32.931 103.404 31.6797C103.909 30.4082 104.161 28.9954 104.161 27.4414V19.1465ZM167.729 32.2246C167.729 33.7786 167.527 35.1813 167.124 36.4326C166.74 37.6637 166.226 38.7536 165.58 39.7021C164.934 40.6507 164.177 41.458 163.309 42.124C162.441 42.79 161.543 43.335 160.615 43.7588C159.686 44.1826 158.738 44.4954 157.769 44.6973C156.821 44.8991 155.922 45 155.075 45H124.711V37.1289H155.075C156.588 37.1289 157.759 36.6849 158.587 35.7969C159.434 34.9089 159.858 33.7181 159.858 32.2246C159.858 31.498 159.747 30.832 159.525 30.2266C159.303 29.6211 158.98 29.0964 158.556 28.6523C158.153 28.2083 157.648 27.8652 157.043 27.623C156.457 27.3809 155.801 27.2598 155.075 27.2598H136.971C135.7 27.2598 134.327 27.0378 132.854 26.5938C131.381 26.1296 130.008 25.3929 128.737 24.3838C127.486 23.3747 126.436 22.0527 125.588 20.418C124.761 18.7832 124.347 16.7852 124.347 14.4238C124.347 12.0625 124.761 10.0745 125.588 8.45996C126.436 6.8252 127.486 5.50326 128.737 4.49414C130.008 3.46484 131.381 2.72819 132.854 2.28418C134.327 1.81999 135.7 1.58789 136.971 1.58789H163.763V9.45898H136.971C135.478 9.45898 134.307 9.91309 133.46 10.8213C132.632 11.7295 132.218 12.9303 132.218 14.4238C132.218 15.9375 132.632 17.1383 133.46 18.0264C134.307 18.8942 135.478 19.3281 136.971 19.3281H155.075H155.135C155.983 19.3483 156.881 19.4694 157.83 19.6914C158.778 19.8932 159.717 20.2161 160.645 20.6602C161.594 21.1042 162.492 21.6693 163.339 22.3555C164.187 23.0215 164.934 23.8288 165.58 24.7773C166.246 25.7259 166.77 26.8158 167.154 28.0469C167.537 29.278 167.729 30.6706 167.729 32.2246ZM223.063 45H215.192V34.3438H187.522V45H179.651V23.2939C179.651 20.1253 180.196 17.209 181.286 14.5449C182.375 11.8809 183.889 9.59017 185.827 7.67285C187.764 5.75553 190.055 4.26204 192.699 3.19238C195.343 2.12272 198.229 1.58789 201.357 1.58789H219.097C219.642 1.58789 220.157 1.6888 220.641 1.89062C221.125 2.09245 221.549 2.375 221.913 2.73828C222.276 3.10156 222.558 3.52539 222.76 4.00977C222.962 4.49414 223.063 5.00879 223.063 5.55371V45ZM187.522 26.4727H215.192V9.45898H201.357C201.115 9.45898 200.6 9.49935 199.813 9.58008C199.046 9.64062 198.148 9.81217 197.119 10.0947C196.109 10.3773 195.04 10.8112 193.91 11.3965C192.779 11.9818 191.74 12.7891 190.791 13.8184C189.843 14.8477 189.056 16.1393 188.43 17.6934C187.825 19.2272 187.522 21.0941 187.522 23.2939V26.4727ZM46.0723 97H34.9014L17.1914 79.2598H11.6514V71.3281H17.1914L34.9014 53.5879H46.0723L23.7607 75.2939L46.0723 97ZM8.50293 97H0.631836V53.5879H8.50293V97ZM65.1385 97H57.2674V53.5879H65.1385V97ZM123.923 93.6396C123.923 94.2048 123.812 94.7295 123.59 95.2139C123.389 95.6982 123.106 96.1221 122.743 96.4854C122.4 96.8285 121.986 97.1009 121.502 97.3027C121.017 97.5046 120.503 97.6055 119.958 97.6055C119.473 97.6055 118.979 97.5146 118.474 97.333C117.99 97.1514 117.556 96.8587 117.172 96.4551L88.4127 66.4238V97H80.5416V56.9482C80.5416 56.141 80.7636 55.4144 81.2076 54.7686C81.6718 54.1025 82.2571 53.6081 82.9635 53.2852C83.7102 52.9824 84.4771 52.9118 85.2643 53.0732C86.0514 53.2145 86.7275 53.5778 87.2926 54.1631L116.052 84.1641V53.5879H123.923V93.6396ZM178.531 61.459H161.184V97H153.313V61.459H135.936V53.5879H178.531V61.459ZM231.624 97H223.753V86.3438H196.083V97H188.212V75.2939C188.212 72.1253 188.757 69.209 189.847 66.5449C190.937 63.8809 192.45 61.5902 194.388 59.6729C196.325 57.7555 198.616 56.262 201.26 55.1924C203.904 54.1227 206.79 53.5879 209.918 53.5879H227.658C228.203 53.5879 228.718 53.6888 229.202 53.8906C229.687 54.0924 230.111 54.375 230.474 54.7383C230.837 55.1016 231.12 55.5254 231.321 56.0098C231.523 56.4941 231.624 57.0088 231.624 57.5537V97ZM196.083 78.4727H223.753V61.459H209.918C209.676 61.459 209.161 61.4993 208.374 61.5801C207.607 61.6406 206.709 61.8122 205.68 62.0947C204.671 62.3773 203.601 62.8112 202.471 63.3965C201.341 63.9818 200.301 64.7891 199.353 65.8184C198.404 66.8477 197.617 68.1393 196.991 69.6934C196.386 71.2272 196.083 73.0941 196.083 75.2939V78.4727ZM254.929 97H247.058V53.5879H254.929V97Z" fill="white"/>
</svg>

